<mxfile host="app.diagrams.net" modified="2022-09-30T07:58:34.148Z" agent="5.0 (Windows NT 10.0; Win64; x64) AppleWebKit/537.36 (KHTML, like Gecko) Chrome/105.0.0.0 Safari/537.36 Edg/105.0.1343.53" etag="-T5uQbOsFcPyRk4QlfG8" version="20.3.7" type="github">
  <diagram id="lzuxYSnDFWuaB7cAEX7z" name="Page-1">
    <mxGraphModel dx="781" dy="436" grid="1" gridSize="10" guides="1" tooltips="1" connect="1" arrows="1" fold="1" page="1" pageScale="1" pageWidth="827" pageHeight="1169" math="0" shadow="0">
      <root>
        <mxCell id="0" />
        <mxCell id="1" parent="0" />
        <mxCell id="_hvPgy7QcTn9_etGL15T-2" value="额&lt;br&gt;外&lt;br&gt;信&lt;br&gt;息" style="rounded=0;whiteSpace=wrap;html=1;fillColor=#dae8fc;strokeColor=#6c8ebf;" vertex="1" parent="1">
          <mxGeometry x="80" y="80" width="40" height="80" as="geometry" />
        </mxCell>
        <mxCell id="_hvPgy7QcTn9_etGL15T-3" value="额&lt;br&gt;外&lt;br&gt;信&lt;br&gt;息" style="rounded=0;whiteSpace=wrap;html=1;fillColor=#dae8fc;strokeColor=#6c8ebf;" vertex="1" parent="1">
          <mxGeometry x="120" y="80" width="40" height="80" as="geometry" />
        </mxCell>
        <mxCell id="_hvPgy7QcTn9_etGL15T-4" value="额&lt;br&gt;外&lt;br&gt;信&lt;br&gt;息" style="rounded=0;whiteSpace=wrap;html=1;fillColor=#dae8fc;strokeColor=#6c8ebf;" vertex="1" parent="1">
          <mxGeometry x="160" y="80" width="40" height="80" as="geometry" />
        </mxCell>
        <mxCell id="_hvPgy7QcTn9_etGL15T-5" value="碎片" style="rounded=0;whiteSpace=wrap;html=1;fillColor=#d5e8d4;strokeColor=#82b366;" vertex="1" parent="1">
          <mxGeometry x="240" y="80" width="60" height="80" as="geometry" />
        </mxCell>
        <mxCell id="_hvPgy7QcTn9_etGL15T-6" value="额&lt;br&gt;外&lt;br&gt;信&lt;br&gt;息" style="rounded=0;whiteSpace=wrap;html=1;fillColor=#dae8fc;strokeColor=#6c8ebf;" vertex="1" parent="1">
          <mxGeometry x="200" y="80" width="40" height="80" as="geometry" />
        </mxCell>
        <mxCell id="_hvPgy7QcTn9_etGL15T-7" value="缓存页" style="rounded=0;whiteSpace=wrap;html=1;fillColor=#e1d5e7;strokeColor=#9673a6;" vertex="1" parent="1">
          <mxGeometry x="300" y="80" width="80" height="80" as="geometry" />
        </mxCell>
        <mxCell id="_hvPgy7QcTn9_etGL15T-8" value="缓存页" style="rounded=0;whiteSpace=wrap;html=1;fillColor=#e1d5e7;strokeColor=#9673a6;" vertex="1" parent="1">
          <mxGeometry x="380" y="80" width="80" height="80" as="geometry" />
        </mxCell>
        <mxCell id="_hvPgy7QcTn9_etGL15T-9" value="缓存页" style="rounded=0;whiteSpace=wrap;html=1;fillColor=#e1d5e7;strokeColor=#9673a6;" vertex="1" parent="1">
          <mxGeometry x="460" y="80" width="80" height="80" as="geometry" />
        </mxCell>
        <mxCell id="_hvPgy7QcTn9_etGL15T-10" value="缓存页" style="rounded=0;whiteSpace=wrap;html=1;fillColor=#e1d5e7;strokeColor=#9673a6;" vertex="1" parent="1">
          <mxGeometry x="540" y="80" width="80" height="80" as="geometry" />
        </mxCell>
      </root>
    </mxGraphModel>
  </diagram>
</mxfile>
